<?xml version="1.0" encoding="utf-8"?>
<!-- Generator: Adobe Illustrator 19.2.0, SVG Export Plug-In . SVG Version: 6.00 Build 0)  -->
<svg version="1.1" id="DEMB" xmlns="http://www.w3.org/2000/svg" xmlns:xlink="http://www.w3.org/1999/xlink" x="0px" y="0px"
	 viewBox="0 0 81.2 81.2" style="enable-background:new 0 0 81.2 81.2;" xml:space="preserve">
<style type="text/css">
	.st0{fill:#C20C0D;}
	.st1{fill:#FFFFFF;}
</style>
<g>
	<path class="st0" d="M64.8,9.2C62.1,1.6,53-2.2,45.7,1.3c-3.2,1.5-7,1.5-10.2,0c-7.3-3.5-16.4,0.3-19.1,7.9c-1.2,3.4-3.8,6-7.2,7.2
		C1.6,19.1-2.2,28.2,1.3,35.5c1.5,3.2,1.5,6.9,0,10.2C-2.2,53,1.6,62.1,9.2,64.8c3.4,1.2,6,3.8,7.2,7.2c2.7,7.6,11.8,11.4,19.1,7.9
		c3.2-1.5,7-1.5,10.2,0c7.3,3.5,16.4-0.3,19.1-7.9c1.2-3.4,3.8-6,7.2-7.2c7.6-2.7,11.4-11.8,7.9-19.1c-1.5-3.2-1.5-7,0-10.2
		c3.5-7.3-0.3-16.4-7.9-19.1C68.6,15.2,66,12.6,64.8,9.2z"/>
	<g>
		<path class="st1" d="M25.7,23.2H21v35.8h4.5c8.4,0,11.5-9.5,11.5-18.3C37,30.8,33.7,23.2,25.7,23.2z M25.7,54.7V27.4
			c4.6,0,6.5,3.5,6.5,13.7C32.2,50,30.5,54.7,25.7,54.7z M60.2,54.8v4.2H47.6V23.1h12.3v4.2h-7.6v11h7.7v4h-7.7v12.4H60.2z M44,40.4
			c0,1.1-0.9,2-2,2c-1.1,0-2-0.9-2-2c0-1.1,0.9-2,2-2C43.1,38.4,44,39.3,44,40.4z"/>
	</g>
</g>
</svg>
